{"title":"Sherlock Holmes DVDSCR AC3 - IMAGiNE","uid":5283289,"size":2182754368,"categoryP":"video","categoryS":"movies","magnet":"?xt=urn:btih:4ef9663f2a3d22724464db315d82b54da8b318dc&amp;dn=Sherlock+Holmes+DVDSCR+AC3+-+IMAGiNE&amp;tr=udp%3A%2F%2Ftracker.openbittorrent.com%3A80&amp;tr=udp%3A%2F%2Fopen.demonii.com%3A1337&amp;tr=udp%3A%2F%2Ftracker.coppersurfer.tk%3A6969&amp;tr=udp%3A%2F%2Fexodus.desync.com%3A6969","seeders":0,"leechers":0,"uploader":"raymondhome","files":-1,"time":1263627486,"description":"Love for All and Sharing is the first step to solving all the problems of humanity.\n\nWebsites I want to share.\n\n    &lt;a href=&quot;\nhttp://www.shareintl.org/&quot; rel=&quot;nofollow&quot; target=&quot;_NEW&quot;&gt;\nhttp://www.shareintl.org/&lt;/a&gt;\n\n    &lt;a href=&quot;\nhttp://www.lightmiddleway.com&quot; rel=&quot;nofollow&quot; target=&quot;_NEW&quot;&gt;\nhttp://www.lightmiddleway.com&lt;/a&gt;\n\n\nThank you very much\n\nNo credit for me...credit to 02ssei &amp; EVERYONE for sharing\n &lt;a href=&quot;\nhttp://thepiratebay.se/user/raymondhome/&quot; rel=&quot;nofollow&quot; target=&quot;_NEW&quot;&gt;\nhttp://thepiratebay.se/user/raymondhome/&lt;/a&gt;\n\nRipper ...........: IMAGiNE IMDB Rating.......:7.7/10\nVideo Codec.......:XVID Release Date......:01/15/10\nAudio Codec.......:AC-3 Theatre Date......:12/25/09\nAudio Bitrate.....:448 Runtime.......:2h 08mn\nSubtitles.........:NIL Language..........:ENGLISH\nResolution...... 704 x 384\n\nDETAILS:\n\nGeneral\nComplete name : Sherlock Holmes 2009 SCR - IMAGiNE.avi\nFormat : AVI\nFormat/Info : Audio Video Interleave\nFormat profile : OpenDML\nFile size : 2.00 GiB\nDuration : 2h 8mn\nOverall bit rate : 2 228 Kbps\nWriting library : VirtualDub build 30091/release\n\nVideo\nID : 0\nFormat : MPEG-4 Visual\nFormat profile : Advanced Simple@L5\nFormat settings, BVOP : Yes\nFormat settings, QPel : No\nFormat settings, GMC : No warppoints\nFormat settings, Matrix : Default (MPEG)\nMuxing mode : Packed bitstream\nCodec ID : XVID\nCodec ID/Hint : XviD\nDuration : 2h 8mn\nBit rate : 1 767 Kbps\nWidth : 704 pixels\nHeight : 384 pixels\nDisplay aspect ratio : 16:9\nFrame rate : 23.976 fps\nResolution : 8 bits\nColorimetry : 4:2:0\nScan type : Progressive\nBits/(Pixel*Frame) : 0.273\nStream size : 1.59 GiB (79%)\nWriting library : XviD 1.2.1 (UTC 2008-12-04)\n\nAudio\nID : 1\nFormat : AC-3\nFormat/Info : Audio Coding 3\nCodec ID : 2000\nDuration : 2h 8mn\nBit rate mode : Constant\nBit rate : 448 Kbps\nChannel(s) : 6 channels\nChannel positions : Front: L C R, Surround: L R, LFE\nSampling rate : 48.0 KHz\nStream size : 412 MiB (20%)\nAlignment : Aligned on interleaves\nInterleave, duration : 42 ms (1.00 video frame)\nInterleave, preload duration : 512 ms\n\nNOTES:\n\nIMAGiNE bringing you another release.....\n\nHere we go again with another screener... This time we bring you a very nice screener of Sherlock Holmes 2009\n\nThanks to our friend ineedmy for the files... Thx bro... ;)\n\nWhere to begin... The source is a very nice source to begin with, so we really only needed to touch this up here and there. There are occasional watermarks but not for long so we elected to just leave them.\n\nThe normal things where done to this release, the video its self was a little dark so we adjusted the contrast, lum, colors and sharpened it a tad to make it look just that much better... Audio is AC3 to keep that nice crisp sound while watching!!!\n\nYou can decide for yourselves as always there is a sample provided.","torrent":{"xt":"urn:btih:4ef9663f2a3d22724464db315d82b54da8b318dc","amp;dn":"Sherlock+Holmes+DVDSCR+AC3+-+IMAGiNE","amp;tr":["udp%3A%2F%2Ftracker.openbittorrent.com%3A80","udp%3A%2F%2Fopen.demonii.com%3A1337","udp%3A%2F%2Ftracker.coppersurfer.tk%3A6969","udp%3A%2F%2Fexodus.desync.com%3A6969"],"infoHash":"4ef9663f2a3d22724464db315d82b54da8b318dc","infoHashBuffer":{"type":"Buffer","data":[78,249,102,63,42,61,34,114,68,100,219,49,93,130,181,77,168,179,24,220]},"announce":[],"urlList":[]}}